<svg width="64" height="75" viewBox="0 0 64 75" fill="none" xmlns="http://www.w3.org/2000/svg">
<circle cx="32" cy="38" r="24" fill="#FFA092" stroke="#FFA092" stroke-width="2"/>
<path d="M32.9571 35.82C35.0971 36.02 36.7471 36.66 37.9071 37.74C39.0671 38.8 39.6471 40.16 39.6471 41.82C39.6471 43.02 39.3371 44.11 38.7171 45.09C38.0971 46.05 37.1571 46.82 35.8971 47.4C34.6571 47.96 33.1471 48.24 31.3671 48.24C29.6871 48.24 28.1471 48.02 26.7471 47.58C25.3671 47.12 24.2371 46.49 23.3571 45.69L24.8871 43.32C26.5871 44.82 28.7471 45.57 31.3671 45.57C33.0271 45.57 34.3171 45.24 35.2371 44.58C36.1771 43.9 36.6471 42.99 36.6471 41.85C36.6471 40.71 36.1771 39.82 35.2371 39.18C34.2971 38.52 32.9271 38.19 31.1271 38.19H29.4171V36.09L34.9971 29.61H23.8671V27H38.8071V29.04L32.9571 35.82Z" fill="white"/>
</svg>
