<svg width="64" height="75" viewBox="0 0 64 75" fill="none" xmlns="http://www.w3.org/2000/svg">
<circle cx="32" cy="38" r="24" fill="#FFA092" stroke="#FFA092" stroke-width="2"/>
<path d="M39.6471 45.39V48H24.1371V45.96L32.9871 37.71C34.0671 36.71 34.7971 35.85 35.1771 35.13C35.5571 34.39 35.7471 33.65 35.7471 32.91C35.7471 31.83 35.3371 30.98 34.5171 30.36C33.6971 29.74 32.5171 29.43 30.9771 29.43C28.5171 29.43 26.6371 30.18 25.3371 31.68L23.2971 29.94C24.1571 28.92 25.2671 28.14 26.6271 27.6C28.0071 27.04 29.5371 26.76 31.2171 26.76C33.5371 26.76 35.3671 27.29 36.7071 28.35C38.0671 29.41 38.7471 30.83 38.7471 32.61C38.7471 33.71 38.4871 34.76 37.9671 35.76C37.4671 36.76 36.5171 37.91 35.1171 39.21L28.5171 45.39H39.6471Z" fill="white"/>
</svg>
