<svg width="64" height="75" viewBox="0 0 64 75" fill="none" xmlns="http://www.w3.org/2000/svg">
<circle cx="32" cy="38" r="24" fill="#FFA092" stroke="#FFA092" stroke-width="2"/>
<path d="M25.8335 49.32C25.8335 49.06 25.7835 48.93 25.6835 48.93L24.9935 49.26C24.9935 49.12 24.9135 49.02 24.7535 48.96L24.5135 48.93C24.3535 48.93 24.1535 49 23.9135 49.14C23.8735 49.04 23.8235 48.94 23.7635 48.84C23.7035 48.74 23.6535 48.65 23.6135 48.57C23.3535 48.07 23.0935 47.52 22.8335 46.92C22.5935 46.3 22.3635 45.71 22.1435 45.15C21.9435 44.59 21.7835 44.15 21.6635 43.83C21.5835 43.57 21.4935 43.18 21.3935 42.66C21.2935 42.14 21.1935 41.48 21.0935 40.68C21.3135 40.82 21.4835 40.89 21.6035 40.89C21.7435 40.89 21.8735 40.68 21.9935 40.26C22.0535 40.34 22.1635 40.38 22.3235 40.38C22.4435 40.38 22.5335 40.34 22.5935 40.26L23.0735 39.54L23.6135 39.72H23.6435C23.6835 39.72 23.7235 39.7 23.7635 39.66C23.8035 39.62 23.8635 39.58 23.9435 39.54C24.1035 39.44 24.2235 39.39 24.3035 39.39L24.3935 39.42C24.8935 39.66 25.2135 40.1 25.3535 40.74C25.7135 42.26 26.0735 43.02 26.4335 43.02C26.7935 43.02 27.2135 42.64 27.6935 41.88C27.9335 41.5 28.1735 41.06 28.4135 40.56C28.6735 40.06 28.9335 39.5 29.1935 38.88C29.2335 39.12 29.2735 39.24 29.3135 39.24C29.4135 39.24 29.5835 38.99 29.8235 38.49C30.0835 37.99 30.4935 37.3 31.0535 36.42C31.3735 35.88 31.7735 35.27 32.2535 34.59C32.7535 33.91 33.2835 33.21 33.8435 32.49C34.4035 31.77 34.9435 31.09 35.4635 30.45C36.0035 29.81 36.4835 29.26 36.9035 28.8C37.3235 28.34 37.6335 28.04 37.8335 27.9C38.5935 27.38 39.1935 26.88 39.6335 26.4C39.6135 26.54 39.5835 26.67 39.5435 26.79C39.5235 26.89 39.5135 26.96 39.5135 27C39.5135 27.08 39.5535 27.12 39.6335 27.12L40.4735 26.7V26.82C40.4735 26.98 40.5135 27.06 40.5935 27.06C40.6535 27.06 40.7735 26.97 40.9535 26.79C41.1335 26.61 41.2335 26.48 41.2535 26.4L41.1935 26.82L42.2135 26.22L41.9735 26.76C42.2935 26.54 42.5235 26.43 42.6635 26.43C42.7435 26.43 42.8035 26.48 42.8435 26.58C42.8835 26.66 42.9035 26.74 42.9035 26.82C42.9035 26.94 42.8535 27.08 42.7535 27.24C42.6535 27.4 42.5235 27.59 42.3635 27.81C42.2435 27.97 42.0435 28.21 41.7635 28.53C41.5035 28.83 41.1035 29.28 40.5635 29.88C40.0235 30.46 39.3035 31.27 38.4035 32.31C38.1635 32.57 37.7935 33.03 37.2935 33.69C36.7935 34.33 36.2235 35.08 35.5835 35.94C34.9635 36.78 34.3435 37.63 33.7235 38.49C33.1035 39.35 32.5535 40.13 32.0735 40.83C31.5935 41.51 31.2535 42.02 31.0535 42.36L29.1935 45.51C28.7935 46.19 28.4635 46.75 28.2035 47.19C27.9435 47.61 27.7435 47.9 27.6035 48.06C27.3035 48.42 26.9735 48.74 26.6135 49.02L26.3435 48.87L26.1035 49.02L25.8335 49.32Z" fill="white"/>
</svg>
