<svg width="50" height="50" viewBox="0 0 50 50" fill="none" xmlns="http://www.w3.org/2000/svg">
<g clip-path="url(#clip0_341_40)">
<path fill-rule="evenodd" clip-rule="evenodd" d="M1 25C1 18.6348 3.52856 12.5303 8.02944 8.02944C12.5303 3.52856 18.6348 1 25 1C31.3652 1 37.4697 3.52856 41.9706 8.02944C46.4714 12.5303 49 18.6348 49 25C49 31.3652 46.4714 37.4697 41.9706 41.9706C37.4697 46.4714 31.3652 49 25 49C18.6348 49 12.5303 46.4714 8.02944 41.9706C3.52856 37.4697 1 31.3652 1 25H1ZM23.6304 35.272L37.448 17.9984L34.952 16.0016L23.1696 30.7248L14.824 23.7712L12.776 26.2288L23.6304 35.2752V35.272Z" fill="#FF7D19"/>
</g>
<circle cx="25" cy="25" r="24" stroke="#FF7D19" stroke-width="2"/>
<defs>
<clipPath id="clip0_341_40">
<rect width="48" height="48" fill="white" transform="translate(1 1)"/>
</clipPath>
</defs>
</svg>
